<svg width="831" height="1024" viewBox="0 0 831 1024" fill="none" xmlns="http://www.w3.org/2000/svg">
<path d="M831 512C831 882.583 598.86 1183 312.5 1183C26.1404 1183 -206 882.583 -206 512C-206 141.417 26.1404 -159 312.5 -159C598.86 -159 831 141.417 831 512Z" fill="#B89FCC" fill-opacity="0.4"/>
<path fill-rule="evenodd" clip-rule="evenodd" d="M283.955 912.811C393.087 912.811 481.555 923.781 481.555 937.313C481.555 950.846 393.087 961.816 283.955 961.816C174.823 961.816 86.3551 950.846 86.3551 937.313C86.3551 923.781 174.823 912.811 283.955 912.811Z" fill="#5E5E5E" fill-opacity="0.811765"/>
<path fill-rule="evenodd" clip-rule="evenodd" d="M333.988 405.073L258.573 419.481C250.921 379.432 278.482 340.516 320.134 332.558C361.785 324.6 401.752 350.615 409.404 390.665C417.055 430.714 389.494 469.63 347.843 477.588C345.786 477.981 343.714 478.292 341.633 478.524L333.988 405.073Z" fill="#8153A5"/>
<path fill-rule="evenodd" clip-rule="evenodd" d="M393.736 919.111L346.525 924.312C343.625 907.961 362.411 892.378 388.485 889.506C413.144 886.79 435.761 896.432 440.399 911.639L393.736 919.111Z" fill="#B89FCC"/>
<path fill-rule="evenodd" clip-rule="evenodd" d="M194.38 922.37L147.027 918.043C149.441 901.643 172.597 890.286 198.749 892.676C223.482 894.936 242.293 908.752 241.927 924.389L194.38 922.37Z" fill="#B89FCC"/>
<path d="M234.814 921.627L166.465 921.382L166.401 932.444L234.751 932.688L234.814 921.627Z" fill="#6A3F78"/>
<path fill-rule="evenodd" clip-rule="evenodd" d="M183.425 932.479L127.431 932.275C127.565 909.02 152.743 890.255 183.667 890.365L183.425 932.479Z" fill="#6A3F78"/>
<path d="M435.057 909.484L368.828 922.798L372.298 933.516L438.526 920.202L435.057 909.484Z" fill="#6A3F78"/>
<path fill-rule="evenodd" clip-rule="evenodd" d="M388.784 930.176L334.526 941.08C327.232 918.546 345.609 895.393 375.574 889.369L388.784 930.176Z" fill="#6A3F78"/>
<path d="M251.583 776.893L206.588 767.677L188.837 895.024L233.832 904.24L251.583 776.893Z" fill="#6A3F78"/>
<path d="M367.118 775.042L317.192 777.892L378.891 892.414L428.818 889.564L367.118 775.042Z" fill="#482B52"/>
<path d="M319.428 725.561L277.479 698.417L206.869 767.001L248.818 794.145L319.428 725.561Z" fill="#6A3F78"/>
<path d="M355.577 683.761L305.753 696.867L320.28 792.278L370.104 779.171L355.577 683.761Z" fill="#482B52"/>
<path fill-rule="evenodd" clip-rule="evenodd" d="M310.988 497.603C355.66 497.603 391.874 548.361 391.874 610.975C391.874 673.588 355.66 724.346 310.988 724.346C266.315 724.346 230.101 673.588 230.101 610.975C230.101 548.361 266.315 497.603 310.988 497.603Z" fill="#6A3F78"/>
<path d="M194.673 507.903C187.215 515.977 205.533 545.03 235.589 572.795C265.645 600.56 296.057 616.522 303.515 608.448C310.974 600.374 292.655 571.32 262.599 543.556C232.543 515.791 202.132 499.829 194.673 507.903Z" fill="#B89FCC"/>
<path d="M302.869 506.745C328.457 506.745 349.2 481.476 349.2 450.306C349.2 419.135 328.457 393.867 302.869 393.867C277.282 393.867 256.539 419.135 256.539 450.306C256.539 481.476 277.282 506.745 302.869 506.745Z" fill="#D8A1FA"/>
<path d="M309.203 418.568C332.29 418.568 351.006 410.203 351.006 399.884C351.006 389.564 332.29 381.199 309.203 381.199C286.117 381.199 267.401 389.564 267.401 399.884C267.401 410.203 286.117 418.568 309.203 418.568Z" fill="#8153A5"/>
<path d="M267.526 390.394C275.727 390.394 282.376 384.07 282.376 376.268C282.376 368.466 275.727 362.142 267.526 362.142C259.324 362.142 252.675 368.466 252.675 376.268C252.675 384.07 259.324 390.394 267.526 390.394Z" fill="#8153A5"/>
<path d="M267.526 390.394C275.727 390.394 282.376 384.07 282.376 376.268C282.376 368.466 275.727 362.142 267.526 362.142C259.324 362.142 252.675 368.466 252.675 376.268C252.675 384.07 259.324 390.394 267.526 390.394Z" fill="#8153A5"/>
<path d="M278.76 368.68C286.962 368.68 293.61 362.355 293.61 354.554C293.61 346.752 286.962 340.428 278.76 340.428C270.558 340.428 263.91 346.752 263.91 354.554C263.91 362.355 270.558 368.68 278.76 368.68Z" fill="#8153A5"/>
<path d="M297.596 355.2C305.798 355.2 312.447 348.876 312.447 341.074C312.447 333.273 305.798 326.948 297.596 326.948C289.395 326.948 282.746 333.273 282.746 341.074C282.746 348.876 289.395 355.2 297.596 355.2Z" fill="#8153A5"/>
<path d="M320.135 346.684C328.336 346.684 334.985 340.359 334.985 332.558C334.985 324.756 328.336 318.432 320.135 318.432C311.933 318.432 305.284 324.756 305.284 332.558C305.284 340.359 311.933 346.684 320.135 346.684Z" fill="#8153A5"/>
<path d="M344.721 345.832C352.922 345.832 359.571 339.507 359.571 331.706C359.571 323.904 352.922 317.58 344.721 317.58C336.519 317.58 329.87 323.904 329.87 331.706C329.87 339.507 336.519 345.832 344.721 345.832Z" fill="#8153A5"/>
<path d="M367.902 352.351C376.103 352.351 382.752 346.026 382.752 338.225C382.752 330.423 376.103 324.099 367.902 324.099C359.7 324.099 353.052 330.423 353.052 338.225C353.052 346.026 359.7 352.351 367.902 352.351Z" fill="#8153A5"/>
<path d="M388.547 363.217C396.749 363.217 403.398 356.892 403.398 349.091C403.398 341.289 396.749 334.965 388.547 334.965C380.346 334.965 373.697 341.289 373.697 349.091C373.697 356.892 380.346 363.217 388.547 363.217Z" fill="#8153A5"/>
<path d="M400.984 382.268C409.186 382.268 415.835 375.944 415.835 368.142C415.835 360.34 409.186 354.016 400.984 354.016C392.783 354.016 386.134 360.34 386.134 368.142C386.134 375.944 392.783 382.268 400.984 382.268Z" fill="#8153A5"/>
<path d="M409.403 404.79C417.605 404.79 424.253 398.466 424.253 390.664C424.253 382.863 417.605 376.538 409.403 376.538C401.201 376.538 394.553 382.863 394.553 390.664C394.553 398.466 401.201 404.79 409.403 404.79Z" fill="#8153A5"/>
<path d="M406.296 420.807C414.497 420.807 421.146 414.482 421.146 406.681C421.146 398.879 414.497 392.555 406.296 392.555C398.094 392.555 391.445 398.879 391.445 406.681C391.445 414.482 398.094 420.807 406.296 420.807Z" fill="#8153A5"/>
<path d="M406.528 442.183C414.729 442.183 421.378 435.859 421.378 428.057C421.378 420.256 414.729 413.931 406.528 413.931C398.326 413.931 391.677 420.256 391.677 428.057C391.677 435.859 398.326 442.183 406.528 442.183Z" fill="#8153A5"/>
<path d="M395.022 458.488C403.223 458.488 409.872 452.164 409.872 444.362C409.872 436.561 403.223 430.237 395.022 430.237C386.82 430.237 380.171 436.561 380.171 444.362C380.171 452.164 386.82 458.488 395.022 458.488Z" fill="#8153A5"/>
<path d="M257.998 410.236C266.2 410.236 272.848 403.912 272.848 396.111C272.848 388.309 266.2 381.985 257.998 381.985C249.796 381.985 243.148 388.309 243.148 396.111C243.148 403.912 249.796 410.236 257.998 410.236Z" fill="#8153A5"/>
<path d="M279.014 416.04C287.215 416.04 293.864 409.715 293.864 401.914C293.864 394.112 287.215 387.788 279.014 387.788C270.812 387.788 264.163 394.112 264.163 401.914C264.163 409.715 270.812 416.04 279.014 416.04Z" fill="#8153A5"/>
<path d="M293.177 420.301C301.379 420.301 308.027 413.976 308.027 406.175C308.027 398.373 301.379 392.049 293.177 392.049C284.975 392.049 278.327 398.373 278.327 406.175C278.327 413.976 284.975 420.301 293.177 420.301Z" fill="#8153A5"/>
<path d="M310.182 420.911C318.384 420.911 325.033 414.586 325.033 406.785C325.033 398.983 318.384 392.659 310.182 392.659C301.981 392.659 295.332 398.983 295.332 406.785C295.332 414.586 301.981 420.911 310.182 420.911Z" fill="#8153A5"/>
<path d="M334.98 428.721C343.182 428.721 349.831 422.396 349.831 414.595C349.831 406.793 343.182 400.469 334.98 400.469C326.779 400.469 320.13 406.793 320.13 414.595C320.13 422.396 326.779 428.721 334.98 428.721Z" fill="#8153A5"/>
<path d="M379.613 472.28C387.815 472.28 394.463 465.956 394.463 458.154C394.463 450.353 387.815 444.028 379.613 444.028C371.411 444.028 364.763 450.353 364.763 458.154C364.763 465.956 371.411 472.28 379.613 472.28Z" fill="#8153A5"/>
<path d="M366.009 477.954C374.211 477.954 380.859 471.63 380.859 463.828C380.859 456.027 374.211 449.702 366.009 449.702C357.807 449.702 351.159 456.027 351.159 463.828C351.159 471.63 357.807 477.954 366.009 477.954Z" fill="#8153A5"/>
<path fill-rule="evenodd" clip-rule="evenodd" d="M283.614 444.12C283.614 451.746 277.741 457.927 270.497 457.927C263.253 457.927 257.381 451.746 257.381 444.12C257.381 436.494 263.253 430.313 270.497 430.313C277.741 430.313 283.614 436.494 283.614 444.12Z" fill="#663333"/>
<path d="M269.83 454.894C275.623 454.894 280.32 449.95 280.32 443.852C280.32 437.753 275.623 432.81 269.83 432.81C264.036 432.81 259.339 437.753 259.339 443.852C259.339 449.95 264.036 454.894 269.83 454.894Z" fill="#D8A1FA"/>
<path fill-rule="evenodd" clip-rule="evenodd" d="M309.083 446.667C309.083 454.293 303.21 460.474 295.966 460.474C288.722 460.474 282.85 454.293 282.85 446.667C282.85 439.042 288.722 432.861 295.966 432.861C303.21 432.861 309.083 439.042 309.083 446.667Z" fill="#663333"/>
<path d="M295.681 457.743C301.475 457.743 306.172 452.799 306.172 446.701C306.172 440.603 301.475 435.659 295.681 435.659C289.888 435.659 285.191 440.603 285.191 446.701C285.191 452.799 289.888 457.743 295.681 457.743Z" fill="#D8A1FA"/>
<path d="M347.729 451.5L308.532 445.331L308.157 447.711L347.355 453.88L347.729 451.5Z" fill="#663333"/>
<path d="M198.074 500.406C206.576 500.406 213.469 492.639 213.469 483.057C213.469 473.475 206.576 465.708 198.074 465.708C189.571 465.708 182.679 473.475 182.679 483.057C182.679 492.639 189.571 500.406 198.074 500.406Z" fill="#FFFF00"/>
<path d="M198.074 511.158C202.527 511.158 206.137 506.344 206.137 500.406C206.137 494.468 202.527 489.655 198.074 489.655C193.62 489.655 190.01 494.468 190.01 500.406C190.01 506.344 193.62 511.158 198.074 511.158Z" fill="#FFFF00"/>
<path d="M198.074 511.158C202.527 511.158 206.137 506.344 206.137 500.406C206.137 494.468 202.527 489.655 198.074 489.655C193.62 489.655 190.01 494.468 190.01 500.406C190.01 506.344 193.62 511.158 198.074 511.158Z" fill="#FFFF00"/>
<path fill-rule="evenodd" clip-rule="evenodd" d="M198.062 500.776L206.138 500.774C206.138 500.776 206.138 500.776 206.138 500.776C206.138 506.722 202.522 511.543 198.062 511.543C193.601 511.543 189.986 506.722 189.986 500.776C189.986 500.76 189.986 500.745 189.986 500.73L198.062 500.776Z" fill="#CCCCCC"/>
<path d="M205.851 502.582H190.175V503.25H205.851V502.582Z" fill="#999999"/>
<path d="M205.141 505.097H190.916V505.765H205.141V505.097Z" fill="#999999"/>
<path d="M203.85 507.193H192.099V507.861H203.85V507.193Z" fill="#999999"/>
<path d="M191.699 484.313L190.628 484.364L192.339 500.77L193.411 500.719L191.699 484.313Z" fill="black"/>
<path d="M203.948 484.033L202.88 483.937L201.842 500.739L202.91 500.835L203.948 484.033Z" fill="black"/>
<path d="M190.42 485.127C191.61 485.127 192.575 484.279 192.575 483.234C192.575 482.188 191.61 481.341 190.42 481.341C189.229 481.341 188.264 482.188 188.264 483.234C188.264 484.279 189.229 485.127 190.42 485.127Z" fill="#FFFF00" stroke="black" stroke-width="0.199937" stroke-miterlimit="22.9256"/>
<path d="M196.349 483.936C196.356 484.754 195.472 485.42 194.371 485.424C193.272 485.428 192.376 484.768 192.369 483.951" stroke="black" stroke-width="0.199937" stroke-miterlimit="22.9256"/>
<path d="M196.129 484.273C196.847 484.479 197.685 483.75 198.001 482.645C198.317 481.541 197.992 480.479 197.275 480.273C196.557 480.068 195.719 480.797 195.403 481.901C195.087 483.006 195.412 484.068 196.129 484.273Z" fill="#FFFF00" stroke="black" stroke-width="1.28437" stroke-miterlimit="22.9256"/>
<path d="M201.394 483.955C201.401 484.772 200.516 485.438 199.416 485.442C198.316 485.446 197.421 484.786 197.414 483.969" stroke="black" stroke-width="0.199937" stroke-miterlimit="22.9256"/>
<path d="M202.993 484.651C204.184 484.651 205.149 483.804 205.149 482.758C205.149 481.713 204.184 480.865 202.993 480.865C201.803 480.865 200.838 481.713 200.838 482.758C200.838 483.804 201.803 484.651 202.993 484.651Z" fill="#FFFF00" stroke="black" stroke-width="0.199937" stroke-miterlimit="22.9256"/>
<path fill-rule="evenodd" clip-rule="evenodd" d="M300.553 499.425L322.182 501.62C322.009 505.356 313.383 507.617 302.263 506.843C296.062 506.411 289.947 505.082 285.483 503.195L300.553 499.425Z" fill="#B890D1" fill-opacity="0.768627"/>
</svg>
