<svg width="566" height="353" viewBox="0 0 566 353" fill="none" xmlns="http://www.w3.org/2000/svg">
<path fill-rule="evenodd" clip-rule="evenodd" d="M284.025 145C321.566 145 352 180.212 352 223.65C352 267.088 321.566 302.3 284.025 302.3C246.483 302.3 216.049 267.088 216.049 223.65C216.049 180.212 246.483 145 284.025 145Z" fill="#BDBD1C"/>
<path d="M284.025 351.04C303.689 351.04 319.629 329.219 319.629 302.301C319.629 275.383 303.689 253.561 284.025 253.561C264.362 253.561 248.421 275.383 248.421 302.301C248.421 329.219 264.362 351.04 284.025 351.04Z" fill="#BDBD1C"/>
<path fill-rule="evenodd" clip-rule="evenodd" d="M283.972 303.975L319.63 303.968C319.63 303.975 319.63 303.975 319.63 303.975C319.63 330.933 303.668 352.788 283.972 352.788C264.276 352.788 248.314 330.933 248.314 303.975C248.314 303.906 248.314 303.837 248.314 303.768L283.972 303.975Z" fill="#CCCCCC"/>
<path d="M318.365 312.165H249.149V315.194H318.365V312.165Z" fill="#999999"/>
<path d="M315.227 323.565H252.421V326.594H315.227V323.565Z" fill="#999999"/>
<path d="M309.529 333.066H257.645V336.095H309.529V333.066Z" fill="#999999"/>
<path fill-rule="evenodd" clip-rule="evenodd" d="M284.128 303.876H248.524C248.524 297.278 264.465 291.929 284.128 291.929C303.791 291.929 319.732 297.278 319.732 303.876H284.128Z" fill="#C7C742"/>
<path d="M282.226 301.624C318.801 301.624 348.452 266.563 348.452 223.312C348.452 180.062 318.801 145 282.226 145C245.65 145 216 180.062 216 223.312C216 266.563 245.65 301.624 282.226 301.624Z" fill="#FFFF00"/>
<path fill-rule="evenodd" clip-rule="evenodd" d="M283.571 303.976H319.031C319.031 296.908 303.156 291.179 283.571 291.179C263.987 291.179 248.11 296.908 248.11 303.976H283.571Z" fill="#BDBD1C"/>
<path d="M319.128 289.54L300.915 301.933" stroke="#BDBD1C" stroke-width="0.749857" stroke-miterlimit="22.9256"/>
<path d="M256.867 174.52C266.657 166.615 272.538 157.279 270.003 153.669C267.468 150.058 257.477 153.54 247.687 161.445C237.897 169.35 232.015 178.685 234.55 182.295C237.085 185.906 247.077 182.425 256.867 174.52Z" fill="#FCFCA1"/>
<path d="M252.363 259.13H247.899L260.2 293.853H264.664L252.363 259.13Z" fill="#800080"/>
<path d="M252.362 236.804H247.898V259.382H252.362V236.804Z" fill="#800080"/>
<path d="M314.876 259.163H319.34L307.039 293.886H302.575L314.876 259.163Z" fill="#800080"/>
<path d="M319.342 236.837H314.877V259.415H319.342V236.837Z" fill="#800080"/>
<path d="M250.205 238.179C254.034 238.179 257.138 231.374 257.138 222.981C257.138 214.587 254.034 207.783 250.205 207.783C246.377 207.783 243.273 214.587 243.273 222.981C243.273 231.374 246.377 238.179 250.205 238.179Z" fill="#FFFF00" stroke="#C204C2" stroke-width="0.500031" stroke-miterlimit="22.9256"/>
<path d="M317.18 238.914C321.009 238.914 324.112 232.109 324.112 223.716C324.112 215.322 321.009 208.518 317.18 208.518C313.351 208.518 310.247 215.322 310.247 223.716C310.247 232.109 313.351 238.914 317.18 238.914Z" fill="#FFFF00" stroke="#C204C2" stroke-width="0.500031" stroke-miterlimit="22.9256"/>
<path d="M271.46 237.957C275.289 237.957 278.393 231.152 278.393 222.759C278.393 214.365 275.289 207.561 271.46 207.561C267.631 207.561 264.528 214.365 264.528 222.759C264.528 231.152 267.631 237.957 271.46 237.957Z" fill="#FFFF00" stroke="#C204C2" stroke-width="0.500031" stroke-miterlimit="22.9256"/>
<path d="M294.175 237.913C298.004 237.913 301.108 231.109 301.108 222.715C301.108 214.321 298.004 207.517 294.175 207.517C290.347 207.517 287.243 214.321 287.243 222.715C287.243 231.109 290.347 237.913 294.175 237.913Z" fill="#FFFF00" stroke="#C204C2" stroke-width="0.500031" stroke-miterlimit="22.9256"/>
<path d="M253.832 235.991C253.832 238.269 257.064 240.116 261.051 240.116C265.037 240.116 268.269 238.269 268.269 235.991" stroke="#C204C2" stroke-width="0.500031" stroke-miterlimit="22.9256"/>
<path d="M275.603 235.308C275.603 237.587 278.835 239.433 282.822 239.433C286.808 239.433 290.041 237.587 290.041 235.308" stroke="#C204C2" stroke-width="0.500031" stroke-miterlimit="22.9256"/>
<path d="M298.337 235.66C298.337 237.939 301.569 239.786 305.556 239.786C309.543 239.786 312.775 237.939 312.775 235.66" stroke="#C204C2" stroke-width="0.500031" stroke-miterlimit="22.9256"/>
<path d="M109.592 89.272C111.064 88.888 112.12 88.504 112.76 88.12C113.464 87.672 113.912 87.096 114.104 86.392C114.36 85.624 114.488 84.504 114.488 83.032V58.072C114.488 55 114.232 52.856 113.72 51.64C113.272 50.36 112.12 48.952 110.264 47.416L111.128 46.168H127.352L128.024 47.704C126.168 48.792 124.984 49.816 124.472 50.776C123.96 51.672 123.704 53.304 123.704 55.672V79.288C123.704 82.296 123.928 84.44 124.376 85.72C124.888 86.936 126.04 88.312 127.832 89.848L127.064 91H110.264L109.592 89.272ZM153.172 59.128C155.732 59.128 158.036 59.8 160.084 61.144C162.196 62.424 163.828 64.216 164.98 66.52C166.196 68.824 166.804 71.416 166.804 74.296C166.804 77.624 166.004 80.632 164.404 83.32C162.868 85.944 160.724 88.024 157.972 89.56C155.22 91.096 152.148 91.864 148.756 91.864C146.452 91.864 144.148 91.512 141.844 90.808C139.54 90.104 137.652 89.144 136.18 87.928V50.008C136.18 49.496 136.084 49.144 135.892 48.952C135.7 48.76 135.38 48.664 134.932 48.664H131.956L131.668 47.704C132.884 46.552 134.452 45.656 136.372 45.016C138.356 44.312 140.308 43.96 142.228 43.96C143.06 43.96 143.7 44.152 144.148 44.536C144.66 44.856 144.916 45.336 144.916 45.976V62.104C145.876 61.144 147.06 60.408 148.468 59.896C149.94 59.384 151.508 59.128 153.172 59.128ZM149.236 89.656C154.548 89.656 157.204 85.08 157.204 75.928C157.204 71.384 156.532 67.928 155.188 65.56C153.908 63.128 151.988 61.912 149.428 61.912C147.828 61.912 146.324 62.392 144.916 63.352V88.696C146.324 89.336 147.764 89.656 149.236 89.656ZM194.791 82.264C193.895 85.08 192.327 87.384 190.087 89.176C187.911 90.968 185.575 91.864 183.079 91.864C180.263 91.864 178.183 90.968 176.839 89.176C175.495 87.384 174.823 84.632 174.823 80.92V65.272C174.823 64.376 174.407 63.928 173.575 63.928H170.599L170.311 62.872C171.59 61.784 173.191 60.888 175.111 60.184C177.031 59.48 178.919 59.128 180.775 59.128C181.607 59.128 182.247 59.32 182.695 59.704C183.207 60.088 183.463 60.6 183.463 61.24V80.44C183.463 82.616 183.783 84.312 184.423 85.528C185.063 86.68 185.959 87.256 187.111 87.256C189.479 87.256 191.367 85.816 192.775 82.936C194.247 79.992 194.983 76.184 194.983 71.512C194.983 69.016 194.791 67.096 194.406 65.752C194.087 64.344 193.479 63.128 192.583 62.104L191.719 61.048L192.487 60.184L203.527 59.32V85.528C203.527 87.448 204.103 88.408 205.255 88.408C206.471 88.408 207.655 87.928 208.807 86.968L209.575 87.928C207.335 90.552 204.551 91.864 201.223 91.864C198.791 91.864 197.095 91.16 196.135 89.752C195.239 88.344 194.791 85.848 194.791 82.264ZM233.355 59.128C235.403 59.128 237.067 59.736 238.347 60.952C239.627 62.104 240.267 63.608 240.267 65.464C240.267 67.192 239.755 68.6 238.731 69.688C237.707 70.712 236.363 71.224 234.699 71.224C233.419 71.224 232.235 70.968 231.147 70.456C232.299 69.496 232.875 68.056 232.875 66.136C232.875 65.24 232.683 64.536 232.299 64.024C231.915 63.512 231.403 63.256 230.763 63.256C229.227 63.256 227.947 64.824 226.923 67.96C225.899 71.032 225.387 74.872 225.387 79.48C225.387 81.848 225.515 83.736 225.771 85.144C226.091 86.552 226.603 87.864 227.307 89.08L228.075 90.04L227.307 91H213.387L212.811 89.368L214.155 89.08C215.179 88.824 215.851 88.44 216.171 87.928C216.491 87.352 216.651 86.264 216.651 84.664V65.944C216.651 64.728 216.235 64.12 215.403 64.12H212.427L212.043 63.064C213.259 61.976 214.763 61.08 216.555 60.376C218.411 59.672 220.235 59.32 222.027 59.32C222.859 59.32 223.531 59.512 224.043 59.896C224.555 60.28 224.811 60.792 224.811 61.432V68.44H225.099C226.443 62.232 229.195 59.128 233.355 59.128ZM253.936 69.784C252.592 70.552 250.992 70.936 249.136 70.936C247.792 70.936 246.736 70.552 245.968 69.784C245.2 68.952 244.816 67.8 244.816 66.328C244.816 64.152 245.872 62.424 247.984 61.144C250.16 59.8 252.976 59.128 256.432 59.128C260.528 59.128 263.728 60.024 266.031 61.816C268.4 63.608 269.584 66.04 269.584 69.112V85.72C269.584 87.512 270.224 88.408 271.504 88.408C272.72 88.408 273.904 87.928 275.056 86.968L275.824 87.928C273.456 90.552 270.64 91.864 267.376 91.864C265.456 91.864 263.984 91.384 262.96 90.424C262 89.464 261.424 87.96 261.232 85.912H260.848C259.824 87.768 258.448 89.24 256.72 90.328C255.056 91.352 253.136 91.864 250.96 91.864C248.528 91.864 246.576 91.128 245.104 89.656C243.632 88.12 242.896 86.136 242.896 83.704C242.896 80.952 244.208 78.776 246.832 77.176C249.456 75.576 253.008 74.776 257.488 74.776C258.32 74.776 259.504 74.84 261.04 74.968V70.168C261.04 67.032 260.656 64.792 259.888 63.448C259.12 62.04 257.872 61.336 256.144 61.336C254.928 61.336 253.968 61.72 253.264 62.488C252.56 63.256 252.208 64.248 252.208 65.464C252.208 67.384 252.784 68.824 253.936 69.784ZM255.376 87.064C259.152 87.064 261.04 83.64 261.04 76.792C257.84 76.792 255.44 77.336 253.84 78.424C252.24 79.448 251.44 80.92 251.44 82.84C251.44 84.12 251.792 85.144 252.496 85.912C253.2 86.68 254.16 87.064 255.376 87.064ZM331.427 60.184C331.427 62.936 330.755 65.368 329.411 67.48C328.131 69.528 326.403 71.096 324.227 72.184C322.115 73.272 319.875 73.816 317.507 73.816C315.011 73.816 312.643 73.176 310.403 71.896L310.595 71.032L312.227 71.128L313.859 71.032C316.355 70.648 318.307 69.528 319.715 67.672C321.123 65.752 321.827 63.224 321.827 60.088C321.827 56.568 321.027 53.624 319.427 51.256C317.891 48.824 315.747 47.608 312.995 47.608C311.523 47.608 310.435 48.024 309.731 48.856C309.091 49.688 308.771 50.616 308.771 51.64V78.424C308.771 80.984 308.963 83 309.347 84.472C309.795 85.944 310.563 87.416 311.651 88.888L312.419 90.04L311.651 91H294.947L294.275 89.272C295.939 88.824 297.091 88.408 297.731 88.024C298.435 87.64 298.915 87.096 299.171 86.392C299.427 85.688 299.555 84.568 299.555 83.032V57.496C299.555 55.256 299.363 53.56 298.979 52.408C298.659 51.192 297.859 50.2 296.579 49.432L295.427 48.76L295.811 47.512C297.667 46.936 300.067 46.424 303.011 45.976C306.019 45.528 308.867 45.304 311.555 45.304C318.083 45.304 323.011 46.68 326.339 49.432C329.731 52.12 331.427 55.704 331.427 60.184ZM346.007 85.528C346.007 87.448 346.615 88.408 347.831 88.408C349.047 88.408 350.231 87.928 351.383 86.968L352.151 87.928C349.911 90.552 347.127 91.864 343.799 91.864C341.559 91.864 339.927 91.352 338.903 90.328C337.879 89.24 337.367 87.544 337.367 85.24V50.008C337.367 49.112 336.951 48.664 336.119 48.664H333.047L332.759 47.704C333.975 46.552 335.543 45.656 337.463 45.016C339.447 44.312 341.399 43.96 343.319 43.96C344.151 43.96 344.791 44.152 345.239 44.536C345.751 44.856 346.007 45.336 346.007 45.976V85.528ZM365.311 69.784C363.967 70.552 362.367 70.936 360.511 70.936C359.167 70.936 358.111 70.552 357.343 69.784C356.575 68.952 356.191 67.8 356.191 66.328C356.191 64.152 357.247 62.424 359.359 61.144C361.535 59.8 364.351 59.128 367.807 59.128C371.903 59.128 375.103 60.024 377.406 61.816C379.775 63.608 380.959 66.04 380.959 69.112V85.72C380.959 87.512 381.599 88.408 382.879 88.408C384.095 88.408 385.279 87.928 386.431 86.968L387.199 87.928C384.831 90.552 382.015 91.864 378.751 91.864C376.831 91.864 375.359 91.384 374.335 90.424C373.375 89.464 372.799 87.96 372.607 85.912H372.223C371.199 87.768 369.823 89.24 368.095 90.328C366.431 91.352 364.511 91.864 362.335 91.864C359.903 91.864 357.951 91.128 356.479 89.656C355.007 88.12 354.271 86.136 354.271 83.704C354.271 80.952 355.583 78.776 358.207 77.176C360.831 75.576 364.383 74.776 368.863 74.776C369.695 74.776 370.879 74.84 372.415 74.968V70.168C372.415 67.032 372.031 64.792 371.263 63.448C370.495 62.04 369.247 61.336 367.519 61.336C366.303 61.336 365.343 61.72 364.639 62.488C363.935 63.256 363.583 64.248 363.583 65.464C363.583 67.384 364.159 68.824 365.311 69.784ZM366.751 87.064C370.527 87.064 372.415 83.64 372.415 76.792C369.215 76.792 366.815 77.336 365.215 78.424C363.615 79.448 362.815 80.92 362.815 82.84C362.815 84.12 363.167 85.144 363.871 85.912C364.575 86.68 365.535 87.064 366.751 87.064ZM417.653 67.576C417.653 69.688 417.013 71.352 415.733 72.568C414.453 73.784 412.885 74.392 411.029 74.392C409.557 74.392 408.213 74.008 406.997 73.24C408.405 71.96 409.109 70.168 409.109 67.864C409.109 66.008 408.725 64.504 407.957 63.352C407.189 62.136 406.069 61.528 404.597 61.528C402.933 61.528 401.557 62.84 400.469 65.464C399.445 68.024 398.933 71.384 398.933 75.544C398.933 79.512 399.669 82.712 401.141 85.144C402.677 87.512 404.821 88.696 407.573 88.696C409.493 88.696 411.125 88.344 412.469 87.64C413.877 86.936 415.189 85.912 416.405 84.568L417.557 85.336C416.213 87.256 414.453 88.824 412.277 90.04C410.101 91.256 407.573 91.864 404.693 91.864C400.213 91.864 396.533 90.36 393.653 87.352C390.773 84.344 389.333 80.472 389.333 75.736C389.333 70.68 390.837 66.648 393.845 63.64C396.853 60.632 400.853 59.128 405.845 59.128C409.365 59.128 412.213 59.928 414.389 61.528C416.565 63.064 417.653 65.08 417.653 67.576ZM439.919 88.696C441.775 88.696 443.407 88.376 444.815 87.736C446.223 87.032 447.599 85.88 448.943 84.28L450.095 85.144C448.623 87.256 446.735 88.92 444.431 90.136C442.191 91.288 439.727 91.864 437.039 91.864C434.095 91.864 431.439 91.16 429.071 89.752C426.767 88.344 424.943 86.424 423.599 83.992C422.255 81.496 421.583 78.68 421.583 75.544C421.583 70.552 423.087 66.584 426.095 63.64C429.167 60.632 433.231 59.128 438.287 59.128C441.871 59.128 444.783 59.992 447.023 61.72C449.327 63.384 450.479 65.56 450.479 68.248C450.479 71.32 449.167 73.784 446.543 75.64C443.983 77.432 440.463 78.328 435.983 78.328C434.191 78.328 432.559 78.2 431.087 77.944C431.407 81.272 432.367 83.896 433.967 85.816C435.567 87.736 437.551 88.696 439.919 88.696ZM437.231 61.432C435.247 61.432 433.679 62.648 432.527 65.08C431.439 67.448 430.895 70.776 430.895 75.064V76.6C431.599 76.6 432.463 76.536 433.487 76.408C436.175 76.088 438.223 75.224 439.631 73.816C441.103 72.344 441.839 70.424 441.839 68.056C441.839 66.136 441.391 64.568 440.495 63.352C439.663 62.072 438.575 61.432 437.231 61.432Z" fill="#800080"/>
</svg>
