<svg width="136" height="208" viewBox="0 0 136 208" fill="none" xmlns="http://www.w3.org/2000/svg">
<path fill-rule="evenodd" clip-rule="evenodd" d="M68.025 0C105.566 0 136 35.2119 136 78.6501C136 122.088 105.566 157.3 68.025 157.3C30.4829 157.3 0.0489807 122.088 0.0489807 78.6501C0.0489807 35.2119 30.4829 0 68.025 0Z" fill="#BDBD1C"/>
<path d="M68.025 206.04C87.6886 206.04 103.629 184.219 103.629 157.301C103.629 130.383 87.6886 108.561 68.025 108.561C48.3615 108.561 32.4211 130.383 32.4211 157.301C32.4211 184.219 48.3615 206.04 68.025 206.04Z" fill="#BDBD1C"/>
<path fill-rule="evenodd" clip-rule="evenodd" d="M67.9721 158.975L103.63 158.968C103.63 158.975 103.63 158.975 103.63 158.975C103.63 185.933 87.6679 207.788 67.9721 207.788C48.2762 207.788 32.3137 185.933 32.3137 158.975C32.3137 158.906 32.3137 158.837 32.3137 158.768L67.9721 158.975Z" fill="#CCCCCC"/>
<path d="M102.365 167.165H33.1487V170.194H102.365V167.165Z" fill="#999999"/>
<path d="M99.2272 178.565H36.4212V181.594H99.2272V178.565Z" fill="#999999"/>
<path d="M93.5285 188.066H41.6449V191.095H93.5285V188.066Z" fill="#999999"/>
<path fill-rule="evenodd" clip-rule="evenodd" d="M68.1277 158.876H32.5238C32.5238 152.278 48.4645 146.929 68.1277 146.929C87.7906 146.929 103.732 152.278 103.732 158.876H68.1277Z" fill="#C7C742"/>
<path d="M66.2259 156.624C102.801 156.624 132.452 121.563 132.452 78.3122C132.452 35.0616 102.801 0 66.2259 0C29.6503 0 0 35.0616 0 78.3122C0 121.563 29.6503 156.624 66.2259 156.624Z" fill="#FFFF00"/>
<path fill-rule="evenodd" clip-rule="evenodd" d="M67.5711 158.976H103.031C103.031 151.908 87.1555 146.179 67.5711 146.179C47.9866 146.179 32.1105 151.908 32.1105 158.976H67.5711Z" fill="#BDBD1C"/>
<path d="M103.128 144.54L84.9147 156.933" stroke="#BDBD1C" stroke-width="0.749857" stroke-miterlimit="22.9256"/>
<path d="M40.8666 29.5197C50.6566 21.6147 56.538 12.2795 54.0031 8.66889C51.4682 5.05829 41.4769 8.5396 31.6869 16.4446C21.8969 24.3496 16.0154 33.6848 18.5503 37.2954C21.0852 40.906 31.0766 37.4247 40.8666 29.5197Z" fill="#FCFCA1"/>
<path d="M36.3634 114.13H31.8993L44.2003 148.853H48.6644L36.3634 114.13Z" fill="#800080"/>
<path d="M36.362 91.8038H31.8978V114.382H36.362V91.8038Z" fill="#800080"/>
<path d="M98.8763 114.163H103.34L91.0395 148.886H86.5753L98.8763 114.163Z" fill="#800080"/>
<path d="M103.342 91.8366H98.8774V114.415H103.342V91.8366Z" fill="#800080"/>
<path d="M34.2054 93.1786C38.0341 93.1786 41.1379 86.3742 41.1379 77.9806C41.1379 69.587 38.0341 62.7826 34.2054 62.7826C30.3767 62.7826 27.2729 69.587 27.2729 77.9806C27.2729 86.3742 30.3767 93.1786 34.2054 93.1786Z" fill="#FFFF00" stroke="#C204C2" stroke-width="0.500031" stroke-miterlimit="22.9256"/>
<path d="M101.18 93.9137C105.009 93.9137 108.112 87.1093 108.112 78.7157C108.112 70.3221 105.009 63.5177 101.18 63.5177C97.3512 63.5177 94.2474 70.3221 94.2474 78.7157C94.2474 87.1093 97.3512 93.9137 101.18 93.9137Z" fill="#FFFF00" stroke="#C204C2" stroke-width="0.500031" stroke-miterlimit="22.9256"/>
<path d="M55.4602 92.9566C59.2889 92.9566 62.3927 86.1522 62.3927 77.7586C62.3927 69.365 59.2889 62.5606 55.4602 62.5606C51.6314 62.5606 48.5276 69.365 48.5276 77.7586C48.5276 86.1522 51.6314 92.9566 55.4602 92.9566Z" fill="#FFFF00" stroke="#C204C2" stroke-width="0.500031" stroke-miterlimit="22.9256"/>
<path d="M78.1753 92.913C82.004 92.913 85.1078 86.1086 85.1078 77.715C85.1078 69.3214 82.004 62.517 78.1753 62.517C74.3465 62.517 71.2427 69.3214 71.2427 77.715C71.2427 86.1086 74.3465 92.913 78.1753 92.913Z" fill="#FFFF00" stroke="#C204C2" stroke-width="0.500031" stroke-miterlimit="22.9256"/>
<path d="M37.8321 90.9905C37.8321 93.2692 41.0643 95.1156 45.0505 95.1156C49.0372 95.1156 52.2694 93.2692 52.2694 90.9905" stroke="#C204C2" stroke-width="0.500031" stroke-miterlimit="22.9256"/>
<path d="M59.6029 90.308C59.6029 92.5866 62.8351 94.4331 66.8218 94.4331C70.8084 94.4331 74.0406 92.5866 74.0406 90.308" stroke="#C204C2" stroke-width="0.500031" stroke-miterlimit="22.9256"/>
<path d="M82.3372 90.6604C82.3372 92.9391 85.5694 94.7856 89.556 94.7856C93.5426 94.7856 96.7749 92.9391 96.7749 90.6604" stroke="#C204C2" stroke-width="0.500031" stroke-miterlimit="22.9256"/>
</svg>
