<svg width="566" height="145" viewBox="0 0 566 145" fill="none" xmlns="http://www.w3.org/2000/svg">
<g clip-path="url(#clip0_53_444)">
<path d="M566.314 0.954895H0V145.763H566.314V0.954895Z" fill="#800080" stroke="#800080" stroke-width="1.00006" stroke-miterlimit="22.9256"/>
<path fill-rule="evenodd" clip-rule="evenodd" d="M566.314 0.274658V35.9367C546.494 35.9367 530.426 19.9705 530.426 0.274658H566.314Z" fill="white"/>
<path d="M566.248 35.8686L566.314 0.275679C563.371 0.273395 563.241 0.135348 560.373 0.523956L530.669 0.511708C531.128 20.4312 546.073 35.3029 566.248 35.8686ZM566.314 0.274641L566.381 36.0033C546.13 35.8775 530.383 20.2655 530.186 0.0386117L560.028 0C560.646 0.00830358 561.459 0.275471 564.09 0.274433L566.314 0.273603V0.274641Z" fill="white"/>
<path fill-rule="evenodd" clip-rule="evenodd" d="M566.314 145.763H530.426C530.426 126.067 546.493 110.101 566.314 110.101V145.763Z" fill="white" stroke="white" stroke-width="1.00006" stroke-miterlimit="22.9256"/>
<path fill-rule="evenodd" clip-rule="evenodd" d="M0 0.954895H35.8885C35.8885 20.6508 19.821 36.6169 0 36.6169V0.954895Z" fill="white" stroke="#EDEDED" stroke-width="1.00006" stroke-miterlimit="22.9256"/>
<path fill-rule="evenodd" clip-rule="evenodd" d="M0.0284424 145.583V109.921C19.8494 109.921 35.9169 125.887 35.9169 145.583H0.0284424Z" fill="white" stroke="white" stroke-width="1.00006" stroke-miterlimit="22.9256"/>
<path d="M47.7306 10.542C47.7306 31.2007 30.8774 47.9475 10.0875 47.9475" stroke="#F7A600" stroke-width="4.99994" stroke-miterlimit="22.9256"/>
<path d="M10.0894 95.4376C30.8792 95.4376 47.7324 112.184 47.7324 132.843" stroke="#F7A600" stroke-width="4.99994" stroke-miterlimit="22.9256"/>
<path d="M10.0875 47.9476L10.0894 95.4376" stroke="#F7A600" stroke-width="4.99994" stroke-miterlimit="22.9256"/>
<path d="M517.82 132.844C517.82 112.185 534.673 95.438 555.463 95.438" stroke="#F7A600" stroke-width="4.99994" stroke-miterlimit="22.9256"/>
<path d="M555.464 47.9463C534.674 47.9463 517.821 31.1995 517.821 10.5408" stroke="#F7A600" stroke-width="4.99994" stroke-miterlimit="22.9256"/>
<path d="M555.464 47.9463L555.463 95.438" stroke="#F7A600" stroke-width="4.99994" stroke-miterlimit="22.9256"/>
<path d="M517.821 10.5408L47.7307 10.542" stroke="#F7A600" stroke-width="4.99994" stroke-miterlimit="22.9256"/>
<path d="M47.7324 132.843L517.82 132.844" stroke="#F7A600" stroke-width="4.99994" stroke-miterlimit="22.9256"/>
<path d="M436.385 98.6754H81.4785" stroke="#FFFF00" stroke-width="4.99994" stroke-miterlimit="22.9256"/>
<path d="M463.616 91.6059C474.166 91.6059 482.718 82.0284 482.718 70.214C482.718 58.3996 474.166 48.8221 463.616 48.8221C453.065 48.8221 444.513 58.3996 444.513 70.214C444.513 82.0284 453.065 91.6059 463.616 91.6059Z" fill="#FFFF00"/>
<path d="M462.616 104.862C468.141 104.862 472.621 98.927 472.621 91.6057C472.621 84.2844 468.141 78.3492 462.616 78.3492C457.09 78.3492 452.61 84.2844 452.61 91.6057C452.61 98.927 457.09 104.862 462.616 104.862Z" fill="#FFFF00"/>
<path fill-rule="evenodd" clip-rule="evenodd" d="M463 93.0506L473 93.049V93.0506C473 99.6497 468.524 105 463 105C457.476 105 453 99.6497 453 93.0506C453 93.0338 453 93.0168 453 93L463 93.0506Z" fill="#CCCCCC"/>
<path d="M472.266 94.2888H452.814V95.1127H472.266V94.2888Z" fill="#999999"/>
<path d="M471.384 97.3896H453.734V98.2135H471.384V97.3896Z" fill="#999999"/>
<path d="M469.783 99.9734H455.202V100.797H469.783V99.9734Z" fill="#999999"/>
<path d="M455.706 71.7627L454.377 71.8257L456.501 92.0546L457.83 91.9915L455.706 71.7627Z" fill="#800080"/>
<path d="M470.904 71.4179L469.579 71.2993L468.291 92.0156L469.616 92.1342L470.904 71.4179Z" fill="#800080"/>
<path d="M454.118 72.7659C455.595 72.7659 456.792 71.721 456.792 70.432C456.792 69.143 455.595 68.0981 454.118 68.0981C452.641 68.0981 451.443 69.143 451.443 70.432C451.443 71.721 452.641 72.7659 454.118 72.7659Z" fill="#FFFF00" stroke="#800080" stroke-width="0.300094" stroke-miterlimit="22.9256"/>
<path d="M461.475 71.2987C461.484 72.3063 460.387 73.1278 459.022 73.1328C457.657 73.1375 456.546 72.3238 456.538 71.3161" stroke="#800080" stroke-width="0.300094" stroke-miterlimit="22.9256"/>
<path d="M461.141 71.8296C462.16 72.1194 463.213 71.5658 463.493 70.5931C463.773 69.6203 463.175 68.5968 462.156 68.307C461.137 68.0172 460.084 68.5708 459.804 69.5435C459.524 70.5162 460.122 71.5397 461.141 71.8296Z" fill="#FFFF00" stroke="#800080" stroke-width="0.3" stroke-miterlimit="22.9256"/>
<path d="M467.735 71.3211C467.743 72.329 466.646 73.1504 465.281 73.1552C463.916 73.1599 462.805 72.3462 462.797 71.3385" stroke="#800080" stroke-width="0.300094" stroke-miterlimit="22.9256"/>
<path d="M469.72 72.1799C471.197 72.1799 472.394 71.1349 472.394 69.846C472.394 68.557 471.197 67.512 469.72 67.512C468.242 67.512 467.045 68.557 467.045 69.846C467.045 71.1349 468.242 72.1799 469.72 72.1799Z" fill="#FFFF00" stroke="#800080" stroke-width="0.300094" stroke-miterlimit="22.9256"/>
<path d="M88.592 89.272C90.064 88.888 91.12 88.504 91.76 88.12C92.464 87.672 92.912 87.096 93.104 86.392C93.36 85.624 93.488 84.504 93.488 83.032V58.072C93.488 55 93.232 52.856 92.72 51.64C92.272 50.36 91.12 48.952 89.264 47.416L90.128 46.168H106.352L107.024 47.704C105.168 48.792 103.984 49.816 103.472 50.776C102.96 51.672 102.704 53.304 102.704 55.672V79.288C102.704 82.296 102.928 84.44 103.376 85.72C103.888 86.936 105.04 88.312 106.832 89.848L106.064 91H89.264L88.592 89.272ZM132.172 59.128C134.732 59.128 137.036 59.8 139.084 61.144C141.196 62.424 142.828 64.216 143.98 66.52C145.196 68.824 145.804 71.416 145.804 74.296C145.804 77.624 145.004 80.632 143.404 83.32C141.868 85.944 139.724 88.024 136.972 89.56C134.22 91.096 131.148 91.864 127.756 91.864C125.452 91.864 123.148 91.512 120.844 90.808C118.54 90.104 116.652 89.144 115.18 87.928V50.008C115.18 49.496 115.084 49.144 114.892 48.952C114.7 48.76 114.38 48.664 113.932 48.664H110.956L110.668 47.704C111.884 46.552 113.452 45.656 115.372 45.016C117.356 44.312 119.308 43.96 121.228 43.96C122.06 43.96 122.7 44.152 123.148 44.536C123.66 44.856 123.916 45.336 123.916 45.976V62.104C124.876 61.144 126.06 60.408 127.468 59.896C128.94 59.384 130.508 59.128 132.172 59.128ZM128.236 89.656C133.548 89.656 136.204 85.08 136.204 75.928C136.204 71.384 135.532 67.928 134.188 65.56C132.908 63.128 130.988 61.912 128.428 61.912C126.828 61.912 125.324 62.392 123.916 63.352V88.696C125.324 89.336 126.764 89.656 128.236 89.656ZM173.791 82.264C172.895 85.08 171.327 87.384 169.087 89.176C166.911 90.968 164.575 91.864 162.079 91.864C159.263 91.864 157.183 90.968 155.839 89.176C154.495 87.384 153.823 84.632 153.823 80.92V65.272C153.823 64.376 153.407 63.928 152.575 63.928H149.599L149.311 62.872C150.59 61.784 152.191 60.888 154.111 60.184C156.031 59.48 157.919 59.128 159.775 59.128C160.607 59.128 161.247 59.32 161.695 59.704C162.207 60.088 162.463 60.6 162.463 61.24V80.44C162.463 82.616 162.783 84.312 163.423 85.528C164.063 86.68 164.959 87.256 166.111 87.256C168.479 87.256 170.367 85.816 171.775 82.936C173.247 79.992 173.983 76.184 173.983 71.512C173.983 69.016 173.791 67.096 173.406 65.752C173.087 64.344 172.479 63.128 171.583 62.104L170.719 61.048L171.487 60.184L182.527 59.32V85.528C182.527 87.448 183.103 88.408 184.255 88.408C185.471 88.408 186.655 87.928 187.807 86.968L188.575 87.928C186.335 90.552 183.551 91.864 180.223 91.864C177.791 91.864 176.095 91.16 175.135 89.752C174.239 88.344 173.791 85.848 173.791 82.264ZM212.355 59.128C214.403 59.128 216.067 59.736 217.347 60.952C218.627 62.104 219.267 63.608 219.267 65.464C219.267 67.192 218.755 68.6 217.731 69.688C216.707 70.712 215.363 71.224 213.699 71.224C212.419 71.224 211.235 70.968 210.147 70.456C211.299 69.496 211.875 68.056 211.875 66.136C211.875 65.24 211.683 64.536 211.299 64.024C210.915 63.512 210.403 63.256 209.763 63.256C208.227 63.256 206.947 64.824 205.923 67.96C204.899 71.032 204.387 74.872 204.387 79.48C204.387 81.848 204.515 83.736 204.771 85.144C205.091 86.552 205.603 87.864 206.307 89.08L207.075 90.04L206.307 91H192.387L191.811 89.368L193.155 89.08C194.179 88.824 194.851 88.44 195.171 87.928C195.491 87.352 195.651 86.264 195.651 84.664V65.944C195.651 64.728 195.235 64.12 194.403 64.12H191.427L191.043 63.064C192.259 61.976 193.763 61.08 195.555 60.376C197.411 59.672 199.235 59.32 201.027 59.32C201.859 59.32 202.531 59.512 203.043 59.896C203.555 60.28 203.811 60.792 203.811 61.432V68.44H204.099C205.443 62.232 208.195 59.128 212.355 59.128ZM232.936 69.784C231.592 70.552 229.992 70.936 228.136 70.936C226.792 70.936 225.736 70.552 224.968 69.784C224.2 68.952 223.816 67.8 223.816 66.328C223.816 64.152 224.872 62.424 226.984 61.144C229.16 59.8 231.976 59.128 235.432 59.128C239.528 59.128 242.728 60.024 245.031 61.816C247.4 63.608 248.584 66.04 248.584 69.112V85.72C248.584 87.512 249.224 88.408 250.504 88.408C251.72 88.408 252.904 87.928 254.056 86.968L254.824 87.928C252.456 90.552 249.64 91.864 246.376 91.864C244.456 91.864 242.984 91.384 241.96 90.424C241 89.464 240.424 87.96 240.232 85.912H239.848C238.824 87.768 237.448 89.24 235.72 90.328C234.056 91.352 232.136 91.864 229.96 91.864C227.528 91.864 225.576 91.128 224.104 89.656C222.632 88.12 221.896 86.136 221.896 83.704C221.896 80.952 223.208 78.776 225.832 77.176C228.456 75.576 232.008 74.776 236.488 74.776C237.32 74.776 238.504 74.84 240.04 74.968V70.168C240.04 67.032 239.656 64.792 238.888 63.448C238.12 62.04 236.872 61.336 235.144 61.336C233.928 61.336 232.968 61.72 232.264 62.488C231.56 63.256 231.208 64.248 231.208 65.464C231.208 67.384 231.784 68.824 232.936 69.784ZM234.376 87.064C238.152 87.064 240.04 83.64 240.04 76.792C236.84 76.792 234.44 77.336 232.84 78.424C231.24 79.448 230.44 80.92 230.44 82.84C230.44 84.12 230.792 85.144 231.496 85.912C232.2 86.68 233.16 87.064 234.376 87.064ZM310.427 60.184C310.427 62.936 309.755 65.368 308.411 67.48C307.131 69.528 305.403 71.096 303.227 72.184C301.115 73.272 298.875 73.816 296.507 73.816C294.011 73.816 291.643 73.176 289.403 71.896L289.595 71.032L291.227 71.128L292.859 71.032C295.355 70.648 297.307 69.528 298.715 67.672C300.123 65.752 300.827 63.224 300.827 60.088C300.827 56.568 300.027 53.624 298.427 51.256C296.891 48.824 294.747 47.608 291.995 47.608C290.523 47.608 289.435 48.024 288.731 48.856C288.091 49.688 287.771 50.616 287.771 51.64V78.424C287.771 80.984 287.963 83 288.347 84.472C288.795 85.944 289.563 87.416 290.651 88.888L291.419 90.04L290.651 91H273.947L273.275 89.272C274.939 88.824 276.091 88.408 276.731 88.024C277.435 87.64 277.915 87.096 278.171 86.392C278.427 85.688 278.555 84.568 278.555 83.032V57.496C278.555 55.256 278.363 53.56 277.979 52.408C277.659 51.192 276.859 50.2 275.579 49.432L274.427 48.76L274.811 47.512C276.667 46.936 279.067 46.424 282.011 45.976C285.019 45.528 287.867 45.304 290.555 45.304C297.083 45.304 302.011 46.68 305.339 49.432C308.731 52.12 310.427 55.704 310.427 60.184ZM325.007 85.528C325.007 87.448 325.615 88.408 326.831 88.408C328.047 88.408 329.231 87.928 330.383 86.968L331.151 87.928C328.911 90.552 326.127 91.864 322.799 91.864C320.559 91.864 318.927 91.352 317.903 90.328C316.879 89.24 316.367 87.544 316.367 85.24V50.008C316.367 49.112 315.951 48.664 315.119 48.664H312.047L311.759 47.704C312.975 46.552 314.543 45.656 316.463 45.016C318.447 44.312 320.399 43.96 322.319 43.96C323.151 43.96 323.791 44.152 324.239 44.536C324.751 44.856 325.007 45.336 325.007 45.976V85.528ZM344.311 69.784C342.967 70.552 341.367 70.936 339.511 70.936C338.167 70.936 337.111 70.552 336.343 69.784C335.575 68.952 335.191 67.8 335.191 66.328C335.191 64.152 336.247 62.424 338.359 61.144C340.535 59.8 343.351 59.128 346.807 59.128C350.903 59.128 354.103 60.024 356.406 61.816C358.775 63.608 359.959 66.04 359.959 69.112V85.72C359.959 87.512 360.599 88.408 361.879 88.408C363.095 88.408 364.279 87.928 365.431 86.968L366.199 87.928C363.831 90.552 361.015 91.864 357.751 91.864C355.831 91.864 354.359 91.384 353.335 90.424C352.375 89.464 351.799 87.96 351.607 85.912H351.223C350.199 87.768 348.823 89.24 347.095 90.328C345.431 91.352 343.511 91.864 341.335 91.864C338.903 91.864 336.951 91.128 335.479 89.656C334.007 88.12 333.271 86.136 333.271 83.704C333.271 80.952 334.583 78.776 337.207 77.176C339.831 75.576 343.383 74.776 347.863 74.776C348.695 74.776 349.879 74.84 351.415 74.968V70.168C351.415 67.032 351.031 64.792 350.263 63.448C349.495 62.04 348.247 61.336 346.519 61.336C345.303 61.336 344.343 61.72 343.639 62.488C342.935 63.256 342.583 64.248 342.583 65.464C342.583 67.384 343.159 68.824 344.311 69.784ZM345.751 87.064C349.527 87.064 351.415 83.64 351.415 76.792C348.215 76.792 345.815 77.336 344.215 78.424C342.615 79.448 341.815 80.92 341.815 82.84C341.815 84.12 342.167 85.144 342.871 85.912C343.575 86.68 344.535 87.064 345.751 87.064ZM396.653 67.576C396.653 69.688 396.013 71.352 394.733 72.568C393.453 73.784 391.885 74.392 390.029 74.392C388.557 74.392 387.213 74.008 385.997 73.24C387.405 71.96 388.109 70.168 388.109 67.864C388.109 66.008 387.725 64.504 386.957 63.352C386.189 62.136 385.069 61.528 383.597 61.528C381.933 61.528 380.557 62.84 379.469 65.464C378.445 68.024 377.933 71.384 377.933 75.544C377.933 79.512 378.669 82.712 380.141 85.144C381.677 87.512 383.821 88.696 386.573 88.696C388.493 88.696 390.125 88.344 391.469 87.64C392.877 86.936 394.189 85.912 395.405 84.568L396.557 85.336C395.213 87.256 393.453 88.824 391.277 90.04C389.101 91.256 386.573 91.864 383.693 91.864C379.213 91.864 375.533 90.36 372.653 87.352C369.773 84.344 368.333 80.472 368.333 75.736C368.333 70.68 369.837 66.648 372.845 63.64C375.853 60.632 379.853 59.128 384.845 59.128C388.365 59.128 391.213 59.928 393.389 61.528C395.565 63.064 396.653 65.08 396.653 67.576ZM418.919 88.696C420.775 88.696 422.407 88.376 423.815 87.736C425.223 87.032 426.599 85.88 427.943 84.28L429.095 85.144C427.623 87.256 425.735 88.92 423.431 90.136C421.191 91.288 418.727 91.864 416.039 91.864C413.095 91.864 410.439 91.16 408.071 89.752C405.767 88.344 403.943 86.424 402.599 83.992C401.255 81.496 400.583 78.68 400.583 75.544C400.583 70.552 402.087 66.584 405.095 63.64C408.167 60.632 412.231 59.128 417.287 59.128C420.871 59.128 423.783 59.992 426.023 61.72C428.327 63.384 429.479 65.56 429.479 68.248C429.479 71.32 428.167 73.784 425.543 75.64C422.983 77.432 419.463 78.328 414.983 78.328C413.191 78.328 411.559 78.2 410.087 77.944C410.407 81.272 411.367 83.896 412.967 85.816C414.567 87.736 416.551 88.696 418.919 88.696ZM416.231 61.432C414.247 61.432 412.679 62.648 411.527 65.08C410.439 67.448 409.895 70.776 409.895 75.064V76.6C410.599 76.6 411.463 76.536 412.487 76.408C415.175 76.088 417.223 75.224 418.631 73.816C420.103 72.344 420.839 70.424 420.839 68.056C420.839 66.136 420.391 64.568 419.495 63.352C418.663 62.072 417.575 61.432 416.231 61.432Z" fill="white"/>
</g>
<defs>
<clipPath id="clip0_53_444">
<rect width="566" height="145" fill="white"/>
</clipPath>
</defs>
</svg>
