<svg width="220" height="236" viewBox="0 0 220 236" fill="none" xmlns="http://www.w3.org/2000/svg">
<path d="M149.073 91.2068H75.667V146.787H149.073V91.2068Z" fill="#8153A5"/>
<path d="M165.082 84.1048L147.141 84.8178L148.024 146.737L165.965 146.024L165.082 84.1048Z" fill="#684682"/>
<path fill-rule="evenodd" clip-rule="evenodd" d="M86.9788 93.3794L92.285 93.4032C92.2711 96.4674 89.8841 98.9406 86.9537 98.9274C84.023 98.9143 81.6587 96.4194 81.6728 93.3555L86.9788 93.3794Z" fill="#B89FCC"/>
<path fill-rule="evenodd" clip-rule="evenodd" d="M76.277 93.6871L81.5832 93.7112C81.5693 96.7751 79.1823 99.2486 76.2519 99.2354C73.3212 99.222 70.9569 96.7274 70.971 93.6633L76.277 93.6871Z" fill="#B89FCC"/>
<path fill-rule="evenodd" clip-rule="evenodd" d="M97.7295 93.595L103.036 93.6189C103.022 96.6828 100.635 99.1562 97.7044 99.1431C94.7737 99.1299 92.4094 96.6351 92.4235 93.5709L97.7295 93.595Z" fill="#E6E6E6"/>
<path fill-rule="evenodd" clip-rule="evenodd" d="M108.4 93.8075L113.705 93.8314C113.692 96.8956 111.305 99.3688 108.374 99.3556C105.444 99.3424 103.079 96.8476 103.093 93.7837L108.4 93.8075Z" fill="#FAB402"/>
<path fill-rule="evenodd" clip-rule="evenodd" d="M119.757 93.6697L125.063 93.6936C125.049 96.7575 122.662 99.2309 119.732 99.2178C116.801 99.2046 114.437 96.7098 114.451 93.6456L119.757 93.6697Z" fill="#B89FCC"/>
<path fill-rule="evenodd" clip-rule="evenodd" d="M130.603 94.105L135.909 94.1289C135.895 97.1928 133.508 99.6662 130.578 99.6531C127.647 99.6399 125.283 97.1451 125.297 94.0809L130.603 94.105Z" fill="#FAB402"/>
<path fill-rule="evenodd" clip-rule="evenodd" d="M141.698 94.0955L147.004 94.1193C146.991 97.1835 144.604 99.6567 141.673 99.6435C138.743 99.6304 136.378 97.1355 136.392 94.0716L141.698 94.0955Z" fill="#F2E82E"/>
<path d="M114.167 93.8242L125.139 93.878L142.584 83.8187L131.612 83.765L114.167 93.8242Z" fill="#B89FCC"/>
<path d="M125.224 94.0557L136.195 94.1095L153.64 84.0503L142.669 83.9965L125.224 94.0557Z" fill="#F2E82E"/>
<path d="M136.471 94.1264L147.443 94.1802L164.888 84.1209L153.916 84.0672L136.471 94.1264Z" fill="#FFFF00"/>
<path d="M102.768 93.9045L113.74 93.9583L131.185 83.8991L120.213 83.8453L102.768 93.9045Z" fill="#FAB402"/>
<path d="M92.2924 93.698L103.264 93.7518L120.709 83.6925L109.737 83.6388L92.2924 93.698Z" fill="#E6E6E6"/>
<path d="M81.3209 93.6443L92.2926 93.6981L109.738 83.6388L98.7659 83.585L81.3209 93.6443Z" fill="#53315E"/>
<path d="M70.7573 93.7074L81.729 93.7612L99.174 83.7019L88.2023 83.6482L70.7573 93.7074Z" fill="#B89FCC"/>
<path d="M94.6967 120.387H80.7729V146.724H94.6967V120.387Z" fill="#663300"/>
<path d="M133.185 112.237H102.77V133.664H133.185V112.237Z" fill="#482B52"/>
<path d="M105.863 130.513C106.204 130.513 106.48 130.215 106.48 129.848C106.48 129.48 106.204 129.182 105.863 129.182C105.523 129.182 105.246 129.48 105.246 129.848C105.246 130.215 105.523 130.513 105.863 130.513Z" fill="#E6E6E6"/>
<path d="M86.8923 122.543H82.8778V126.736H86.8923V122.543Z" fill="#FAB402"/>
<path d="M91.8265 122.54H87.7723V126.774H91.8265V122.54Z" fill="#FAB402"/>
<path d="M86.8457 127.18H82.8312V131.373H86.8457V127.18Z" fill="#FAB402"/>
<path d="M91.7699 127.176H87.7554V131.368H91.7699V127.176Z" fill="#FAB402"/>
<path d="M82.5499 137.704C82.9452 137.704 83.2656 137.385 83.2656 136.991C83.2656 136.598 82.9452 136.278 82.5499 136.278C82.1547 136.278 81.8342 136.598 81.8342 136.991C81.8342 137.385 82.1547 137.704 82.5499 137.704Z" fill="#FAB402"/>
<path d="M128.929 132.87C130.518 132.87 131.806 131.573 131.806 129.974C131.806 128.374 130.518 127.077 128.929 127.077C127.341 127.077 126.053 128.374 126.053 129.974C126.053 131.573 127.341 132.87 128.929 132.87Z" fill="#FAB402"/>
<path d="M129.698 134.182V128.73H130.048V134.182H129.698ZM130.874 130.366C130.848 130.15 130.745 129.982 130.563 129.863C130.381 129.744 130.158 129.684 129.894 129.684C129.701 129.684 129.532 129.716 129.388 129.778C129.244 129.84 129.132 129.926 129.051 130.036C128.972 130.145 128.932 130.269 128.932 130.408C128.932 130.525 128.96 130.625 129.015 130.709C129.072 130.791 129.144 130.86 129.232 130.915C129.32 130.969 129.412 131.014 129.509 131.049C129.605 131.083 129.694 131.111 129.775 131.132L130.218 131.252C130.332 131.281 130.458 131.323 130.597 131.375C130.738 131.428 130.872 131.499 131 131.59C131.129 131.68 131.235 131.795 131.319 131.935C131.403 132.076 131.445 132.248 131.445 132.453C131.445 132.688 131.383 132.901 131.259 133.091C131.137 133.282 130.958 133.433 130.723 133.545C130.488 133.657 130.204 133.713 129.869 133.713C129.556 133.713 129.286 133.663 129.057 133.562C128.83 133.461 128.651 133.321 128.521 133.14C128.392 132.96 128.319 132.751 128.302 132.512H128.847C128.861 132.677 128.916 132.813 129.013 132.921C129.111 133.028 129.234 133.107 129.383 133.16C129.534 133.211 129.696 133.236 129.869 133.236C130.07 133.236 130.251 133.204 130.412 133.138C130.572 133.072 130.699 132.979 130.793 132.861C130.887 132.742 130.934 132.603 130.934 132.444C130.934 132.299 130.893 132.181 130.812 132.091C130.731 132 130.625 131.926 130.493 131.869C130.361 131.812 130.218 131.763 130.065 131.72L129.528 131.567C129.187 131.469 128.918 131.329 128.719 131.147C128.52 130.966 128.421 130.728 128.421 130.434C128.421 130.19 128.487 129.977 128.619 129.795C128.752 129.612 128.931 129.47 129.155 129.369C129.381 129.267 129.633 129.216 129.911 129.216C130.192 129.216 130.442 129.266 130.661 129.367C130.88 129.466 131.053 129.603 131.181 129.776C131.31 129.949 131.378 130.146 131.385 130.366H130.874Z" fill="black"/>
<path d="M88.9478 86.3906C90.9338 86.3906 92.5438 86.1997 92.5438 85.9642C92.5438 85.7287 90.9338 85.5378 88.9478 85.5378C86.9618 85.5378 85.3518 85.7287 85.3518 85.9642C85.3518 86.1997 86.9618 86.3906 88.9478 86.3906Z" fill="white"/>
<path d="M100.89 85.7502C103.04 85.7502 104.783 85.6286 104.783 85.4786C104.783 85.3286 103.04 85.207 100.89 85.207C98.7408 85.207 96.9982 85.3286 96.9982 85.4786C96.9982 85.6286 98.7408 85.7502 100.89 85.7502Z" fill="white"/>
<path d="M88.9478 86.3906C90.9338 86.3906 92.5438 86.1997 92.5438 85.9642C92.5438 85.7287 90.9338 85.5378 88.9478 85.5378C86.9618 85.5378 85.3518 85.7287 85.3518 85.9642C85.3518 86.1997 86.9618 86.3906 88.9478 86.3906Z" fill="white"/>
<path d="M112.225 91.7179C114.375 91.7179 116.118 91.5963 116.118 91.4463C116.118 91.2963 114.375 91.1747 112.225 91.1747C110.076 91.1747 108.333 91.2963 108.333 91.4463C108.333 91.5963 110.076 91.7179 112.225 91.7179Z" fill="white"/>
<path d="M165.56 146.526H75.2292L55.4709 159.378H145.802L165.56 146.526Z" fill="#333333" stroke="black" stroke-width="1.88495" stroke-miterlimit="22.9256"/>
<path d="M91.7482 152.404H77.2014L76.2149 153.717H90.7617L91.7482 152.404Z" fill="#B89FCC"/>
<path d="M92.6717 150.052H78.6263L77.6739 151.365H91.7192L92.6717 150.052Z" fill="#B89FCC"/>
<path d="M94.4829 147.415H80.4375L79.485 148.728H93.5304L94.4829 147.415Z" fill="#B3B3B3"/>
<path d="M89.6093 155.149H75.564L74.6115 156.462H88.6569L89.6093 155.149Z" fill="#462950"/>
<path d="M83.428 124.025C83.6118 124.025 83.7608 123.873 83.7608 123.685C83.7608 123.498 83.6118 123.346 83.428 123.346C83.2442 123.346 83.0952 123.498 83.0952 123.685C83.0952 123.873 83.2442 124.025 83.428 124.025Z" fill="white"/>
<path d="M84.0846 123.34C84.2549 123.34 84.393 123.191 84.393 123.008C84.393 122.824 84.2549 122.675 84.0846 122.675C83.9143 122.675 83.7762 122.824 83.7762 123.008C83.7762 123.191 83.9143 123.34 84.0846 123.34Z" fill="white"/>
<path d="M107.943 112.791L103.617 115.028L103.469 115.602L107.794 113.364L107.943 112.791Z" fill="white"/>
<path d="M109.305 113.429L103.28 116.877L103.168 117.483L109.193 114.035L109.305 113.429Z" fill="#B89FCC"/>
<path fill-rule="evenodd" clip-rule="evenodd" d="M121.857 41.7065C127.868 41.7065 132.741 47.1743 132.741 53.9196C132.741 60.6649 127.868 66.1326 121.857 66.1326C115.847 66.1326 110.974 60.6649 110.974 53.9196C110.974 47.1743 115.847 41.7065 121.857 41.7065Z" fill="#BDBD1C"/>
<path d="M121.857 73.701C125.005 73.701 127.558 70.3125 127.558 66.1326C127.558 61.9527 125.005 58.5643 121.857 58.5643C118.709 58.5643 116.157 61.9527 116.157 66.1326C116.157 70.3125 118.709 73.701 121.857 73.701Z" fill="#BDBD1C"/>
<path fill-rule="evenodd" clip-rule="evenodd" d="M121.849 66.3926L127.558 66.3915C127.558 66.3926 127.558 66.3926 127.558 66.3926C127.558 70.5787 125.002 73.9726 121.849 73.9726C118.695 73.9726 116.14 70.5787 116.14 66.3926C116.14 66.3819 116.14 66.3712 116.14 66.3605L121.849 66.3926Z" fill="#CCCCCC"/>
<path d="M127.355 67.6646H116.273V68.1348H127.355V67.6646Z" fill="#999999"/>
<path d="M126.853 69.4347H116.797V69.905H126.853V69.4347Z" fill="#999999"/>
<path d="M125.941 70.91H117.634V71.3803H125.941V70.91Z" fill="#999999"/>
<path fill-rule="evenodd" clip-rule="evenodd" d="M121.874 66.3772H116.173C116.173 65.3526 118.725 64.5222 121.874 64.5222C125.022 64.5222 127.574 65.3526 127.574 66.3772H121.874Z" fill="#C7C742"/>
<path d="M121.569 66.0278C127.425 66.0278 132.172 60.5833 132.172 53.8671C132.172 47.151 127.425 41.7065 121.569 41.7065C115.713 41.7065 110.966 47.151 110.966 53.8671C110.966 60.5833 115.713 66.0278 121.569 66.0278Z" fill="#FFFF00"/>
<path fill-rule="evenodd" clip-rule="evenodd" d="M121.785 66.3928H127.462C127.462 65.2953 124.92 64.4058 121.785 64.4058C118.649 64.4058 116.107 65.2953 116.107 66.3928H121.785Z" fill="#BDBD1C"/>
<path d="M127.477 64.1511L124.562 66.0755" stroke="#BDBD1C" stroke-width="0.749857" stroke-miterlimit="22.9256"/>
<path d="M117.509 46.2904C119.077 45.0629 120.018 43.6133 119.612 43.0526C119.207 42.4919 117.607 43.0325 116.04 44.2601C114.472 45.4876 113.53 46.9372 113.936 47.4978C114.342 48.0585 115.942 47.5179 117.509 46.2904Z" fill="#FCFCA1"/>
<path d="M116.788 59.429H116.073L118.043 64.8209H118.758L116.788 59.429Z" fill="#800080"/>
<path d="M116.788 55.9622H116.073V59.4683H116.788V55.9622Z" fill="#800080"/>
<path d="M126.797 59.4341H127.511L125.542 64.826H124.827L126.797 59.4341Z" fill="#800080"/>
<path d="M127.512 55.9673H126.797V59.4734H127.512V55.9673Z" fill="#800080"/>
<path d="M116.443 56.1755C117.056 56.1755 117.553 55.119 117.553 53.8156C117.553 52.5123 117.056 51.4557 116.443 51.4557C115.83 51.4557 115.333 52.5123 115.333 53.8156C115.333 55.119 115.83 56.1755 116.443 56.1755Z" fill="#FFFF00" stroke="#C204C2" stroke-width="0.500031" stroke-miterlimit="22.9256"/>
<path d="M127.166 56.2897C127.779 56.2897 128.276 55.2332 128.276 53.9298C128.276 52.6265 127.779 51.5699 127.166 51.5699C126.553 51.5699 126.056 52.6265 126.056 53.9298C126.056 55.2332 126.553 56.2897 127.166 56.2897Z" fill="#FFFF00" stroke="#C204C2" stroke-width="0.500031" stroke-miterlimit="22.9256"/>
<path d="M119.846 56.141C120.459 56.141 120.956 55.0844 120.956 53.7811C120.956 52.4777 120.459 51.4211 119.846 51.4211C119.233 51.4211 118.736 52.4777 118.736 53.7811C118.736 55.0844 119.233 56.141 119.846 56.141Z" fill="#FFFF00" stroke="#C204C2" stroke-width="0.500031" stroke-miterlimit="22.9256"/>
<path d="M123.482 56.1343C124.095 56.1343 124.592 55.0777 124.592 53.7744C124.592 52.471 124.095 51.4144 123.482 51.4144C122.869 51.4144 122.373 52.471 122.373 53.7744C122.373 55.0777 122.869 56.1343 123.482 56.1343Z" fill="#FFFF00" stroke="#C204C2" stroke-width="0.500031" stroke-miterlimit="22.9256"/>
<path d="M117.023 55.8357C117.023 56.1896 117.541 56.4764 118.179 56.4764C118.817 56.4764 119.335 56.1896 119.335 55.8357" stroke="#C204C2" stroke-width="0.500031" stroke-miterlimit="22.9256"/>
<path d="M120.509 55.7298C120.509 56.0837 121.026 56.3705 121.665 56.3705C122.303 56.3705 122.82 56.0837 122.82 55.7298" stroke="#C204C2" stroke-width="0.500031" stroke-miterlimit="22.9256"/>
<path d="M124.149 55.7844C124.149 56.1383 124.666 56.4251 125.305 56.4251C125.943 56.4251 126.46 56.1383 126.46 55.7844" stroke="#C204C2" stroke-width="0.500031" stroke-miterlimit="22.9256"/>
</svg>
