<svg width="56" height="85" viewBox="0 0 56 85" fill="none" xmlns="http://www.w3.org/2000/svg">
<path d="M28 72C43.464 72 56 55.8822 56 36C56 16.1177 43.464 0 28 0C12.536 0 0 16.1177 0 36C0 55.8822 12.536 72 28 72Z" fill="#CFCF21"/>
<path d="M27 72C41.9117 72 54 55.8822 54 36C54 16.1177 41.9117 0 27 0C12.0883 0 0 16.1177 0 36C0 55.8822 12.0883 72 27 72Z" fill="#FFFF00"/>
<path d="M28.0076 84.3612C35.7438 84.3612 42.0152 76.5774 42.0152 66.9757C42.0152 57.3739 35.7438 49.5901 28.0076 49.5901C20.2714 49.5901 14 57.3739 14 66.9757C14 76.5774 20.2714 84.3612 28.0076 84.3612Z" fill="#FFFF00"/>
<path fill-rule="evenodd" clip-rule="evenodd" d="M28 69.3287L42 69.3265V69.3287C42 77.9833 35.733 85 28 85C20.267 85 14 77.9833 14 69.3287C14 69.3066 14 69.2844 14 69.2623L28 69.3287Z" fill="#CCCCCC"/>
<path d="M34.2601 55.7878L35.5417 55.8371L33.8635 68.7975L32.5818 68.7482L34.2601 55.7878Z" fill="#800080"/>
<path d="M42.2288 54.0567L42.5609 55.0616L34.4715 56.4226L34.1394 55.4177L42.2288 54.0567Z" fill="#800080"/>
<path d="M42.4989 46.519L43.7818 46.5371L42.9963 55.053L41.7134 55.0348L42.4989 46.519Z" fill="#800080"/>
<path d="M20.7217 55.7878L19.4401 55.8371L21.1183 68.7975L22.4 68.7482L20.7217 55.7878Z" fill="#800080"/>
<path d="M12.753 54.0567L12.4209 55.0616L20.5103 56.4226L20.8424 55.4177L12.753 54.0567Z" fill="#800080"/>
<path d="M12.4829 46.519L11.2 46.5371L11.9855 55.053L13.2685 55.0348L12.4829 46.519Z" fill="#800080"/>
<path d="M42 71.8853H14V73.1967H42V71.8853Z" fill="#999999"/>
<path d="M40.6 75.8197H15.4V77.1311H40.6V75.8197Z" fill="#999999"/>
<path d="M37.8 79.7541H18.2V81.0656H37.8V79.7541Z" fill="#999999"/>
<ellipse opacity="0.2" cx="28.7" cy="68.3565" rx="14.7" ry="3.53098" fill="#939076"/>
<ellipse cx="10.2958" cy="2.17455" rx="10.2958" ry="2.17455" transform="matrix(0.767763 -0.640734 0.761488 0.64818 4.13062 14.7202)" fill="white"/>
</svg>
